 http://img155.imageshack.us/img155/6087/somewhere2010m.jpg

Country.......: USA
Genre.........: Comedy, Drama
Date release..: 03.09.2010 [World]
Director......: Sofia Coppola
Writers.......: Sofia Coppola
Duration......: 94 min.
More..........: http://www.imdb.com/title/tt1421051
Trailer.......: http://www.imdb.com/video/imdb/vi2394490393
Trailer.......:

Pilot :
Once, somewhere in America, a guy living in a hotel. Ferrari has a sleek, cool life so seriously. Everything is pretty beautiful until there is his daughter. His life becomes a nightmare and he was so good. Will I be happy?

Cats :
Stephen Dorff 	... 	Johnny Marco
Elle Fanning 	... 	Cleo
Chris Pontius 	... 	Sammy
Erin Wasson 	... 	Party Girl #1
Alexandra Williams 	... 	Party Girl #2
Nathalie Fay 	... 	Party Girl #3
Kristina Shannon 	... 	Bambi
Karissa Shannon 	... 	Cindy
John Prudhont 	... 	Chateau Patio Waiter
Ruby Corley 	... 	Patio Girl
Angela Lindvall 	... 	Blonde in Mercedes
Maryna Linchuk 	... 	Vampire Model
Meghan Collision 	... 	Vampire Model
Jessica Miller 	... 	Vampire Model
Lala Sloatman 	... 	Layla 

Data Technical :
!!! SAMPLE !!!
Audio.....: English
Subtitles.: None
Format                           : AVI
Format/Info                      : Audio Video Interleave
File size                        : 301 MiB
Duration                         : 1h 33mn
Overall bit rate                 : 449 Kbps
Writing application              : VirtualDubMod 1.5.10.2 (build 2542/release)
Writing library                  : VirtualDubMod build 2542/release
Video
ID                               : 0
Format                           : MPEG-4 Visual
Format profile                   : Advanced Simple@L5
Format settings, BVOP            : Yes
Format settings, QPel            : No
Format settings, GMC             : No warppoints
Format settings, Matrix          : Default (H.263)
Muxing mode                      : Packed bitstream
Codec ID                         : XVID
Codec ID/Hint                    : XviD
Duration                         : 1h 33mn
Bit rate                         : 311 Kbps
Width                            : 640 pixels
Height                           : 360 pixels
Display aspect ratio             : 16:9
Frame rate                       : 25.000 fps
Color space                      : YUV
Chroma subsampling               : 4:2:0
Bit depth                        : 8 bits
Scan type                        : Progressive
Bits/(Pixel*Frame)               : 0.054
Stream size                      : 209 MiB (69%)
Writing library                  : XviD 1.2.1
Audio
ID                               : 1
Format                           : MPEG Audio
Format version                   : Version 1
Format profile                   : Layer 3
Mode                             : Joint stereo
Mode extension                   : MS Stereo
Codec ID                         : 55
Codec ID/Hint                    : MP3
Duration                         : 1h 33mn
Bit rate mode                    : Constant
Bit rate                         : 128 Kbps
Channel(s)                       : 2 channels
Sampling rate                    : 48.0 KHz
Stream size                      : 85.9 MiB (29%)
Alignment                        : Split accross interleaves
Interleave, duration             : 40 ms (1.00 video frame)
Interleave, preload duration     : 500 ms
Writing library                  : LAME3.98r
Encoding settings                : -m j -V 4 -q 2 -lowpass 17 -b 128

Screen : 
http://img714.imageshack.us/img714/6474/somewhere2010s4.jpg 
http://img839.imageshack.us/img839/3944/somewhere2010s1.jpg 
http://img714.imageshack.us/img714/8661/somewhere2010s2.jpg 
http://img218.imageshack.us/img218/4678/somewhere2010s3.jpg